<svg width="227px" height="129px" id="Livello_1" data-name="Livello 1" xmlns="http://www.w3.org/2000/svg" viewBox="0 0 419.54 266.24"><defs><style>.cls-1{fill:#fff;}</style></defs><path class="cls-1" d="M168.37,3.68H212c9.4,49.67,18.8,99.31,28,148.19,11.87-48.71,24-98.43,36.1-148.2h37.29c11.59,48.95,23.18,97.94,34.31,145C357.83,101.87,368.34,53,378.91,3.84H419c-4.39,17-8.68,33.72-13,50.44-12.25,47-24.58,94-36.66,141-1,3.95-2.7,4.93-6.44,4.85-10.5-.21-21-.35-31.49.06-4.66.18-6.24-1.51-7.23-5.77q-15.36-65.87-31-131.64c-.11-.48-.27-.94-.72-2.45-2.22,9.78-4.11,18.65-6.27,27.45-8.77,35.88-17.67,71.72-26.37,107.61-.86,3.57-2.3,4.83-6,4.75-11.16-.23-22.33-.18-33.5,0-3,0-4.44-.89-5.16-3.88q-22.95-94.32-46-188.61C168.81,6.54,168.67,5.39,168.37,3.68Z" transform="translate(0.53)"/><path class="cls-1" d="M.05,142.73H43.46c2.62,9.21,6.84,17.6,15.75,22,15.74,7.77,32.21,8.64,48.26,1.55,13.94-6.15,15.34-27.32,2.93-36.4-9.65-7.06-21.3-9-32.42-12.39C63.87,113.2,49.49,109.3,36,103.4,16.69,94.93,6,79.69,6.48,57.8,7,35.38,16.75,18.09,37.48,9.5,70.1-4,102.86-4,133.57,15.34c14.9,9.38,22,24.29,24,42h-43.2c-.22-.28-.38-.4-.41-.54-4.47-22.17-24.23-26-42.48-23.76-7.33.89-14,3.37-18,10.21C47.4,53.78,51.3,66.24,63.12,71c10,4,20.68,6.12,30.9,9.55,13.52,4.54,27.37,8.52,40.18,14.61,20.33,9.66,29.85,26.72,28.87,49.37-.94,21.88-11.14,38-30.55,48-19.8,10.23-41.2,11.48-62.83,9.88C52.86,201.2,37,196.64,23.34,186,10.1,175.57,3,161.67.07,145.34A16,16,0,0,1,.05,142.73Z" transform="translate(0.53)"/><path class="cls-1" d="M255.82,254.87c2.53-9,5.09-17.36,7.18-25.83.94-3.79,2.72-4.82,6.52-4.83s5.11,1.36,6,4.86c2.08,8.53,4.63,16.94,7,25.61,2.08-8,4.07-15.84,6.13-23.64,1.9-7.2,1.94-7.19,10.33-6.22-3.36,12-6.82,23.88-9.95,35.85-.93,3.52-2.49,4.78-6.17,4.69-3.49-.08-5.3-.79-6.18-4.6-2-8.9-4.67-17.67-7.35-27.56-.87,3-1.52,5.17-2.14,7.36-2,7.2-3.85,14.47-6.21,21.56-.47,1.43-2.85,3-4.45,3.09-2.26.18-5.5,1.7-6.61-2.31-3.51-12.63-7.11-25.24-10.68-37.9,8.72-1.19,8.74-1.2,10.74,6.69C251.9,239.19,253.77,246.69,255.82,254.87Z" transform="translate(0.53)"/><path class="cls-1" d="M338,265c-4.68,1.43-7.1.05-7.62-5.42-4.79,5.39-10.13,7.21-16.4,6.33s-9.8-4.2-10.61-10.61c-.72-5.68,2-10.61,7.62-12.55a54.85,54.85,0,0,1,10.71-2.09,51,51,0,0,1,6.76-.06c2.33-9.94-2.75-12-18.11-7.5l-2.74-5.79c7.1-3.42,13.94-4.68,21.19-2.77,5.5,1.45,8.9,4.84,9.1,10.51C338.29,245,338,254.94,338,265Zm-9.43-19.33c-3.87.54-7.54.71-11,1.62-4,1-5.48,4.19-4.56,8.12s4.27,4.32,7.49,4C327.26,258.68,330.06,254.13,328.6,245.66Z" transform="translate(0.53)"/><path class="cls-1" d="M417.13,247.18H390c.44,11.73,7.24,14.35,23.87,9.74,1.74,6.06,1.11,7.3-4.79,8.52a42.11,42.11,0,0,1-7.43.79c-9.44.24-16.43-3.84-19.44-11.17-3.64-8.85-1.76-21,4.39-26.59,5.54-5.05,12.16-6,19.1-3.74,6.24,2.05,9.83,6.61,10.67,13.16C416.68,240.64,416.81,243.42,417.13,247.18Zm-26.91-7h17.71c-.73-7-3.15-9.63-8.54-9.68C393.81,230.47,390.93,233.39,390.22,240.2Z" transform="translate(0.53)"/><path class="cls-1" d="M235,247.05H208.32c-.61,11.31,5.18,13.57,24,10,1.11,6.41.83,7.41-5,8.25a49.45,49.45,0,0,1-14.32.11c-7-1.06-12-5.57-13.3-12.52a41.16,41.16,0,0,1,0-15.72c1.94-9.18,10.2-14.4,19.43-13.47s15,7,15.78,16.91C235.09,242.4,235,244.23,235,247.05Zm-9.09-6.66c.38-4-.66-7.72-4.22-8.7a15.31,15.31,0,0,0-10,1c-2,1-2.68,4.65-4.22,7.66Z" transform="translate(0.53)"/><path class="cls-1" d="M72.93,247.05H46.29c-.64,11.31,5.24,13.59,24,10,1.13,6.4.83,7.4-5,8.24A49.52,49.52,0,0,1,51,265.4c-7-1.06-12-5.56-13.3-12.51a41.41,41.41,0,0,1,0-15.73c1.94-9.16,10.21-14.4,19.43-13.47s14.95,7,15.79,16.91C73.06,242.4,72.93,244.23,72.93,247.05Zm-9.06-6.65c-.4-7.09-3.14-10-8.84-9.88-5.46.12-8.42,3.43-8.68,9.88Z" transform="translate(0.53)"/><path class="cls-1" d="M155.74,265.11a18.62,18.62,0,0,1-2.23.35c-1.32.05-2.64,0-4,0l-1.91-5.11c-4.48,4.85-10,6.41-16.3,5.43s-10.74-4.55-11-10.92c-.48-9.91-.13-19.87-.13-30.08h8.76c0,4.83,0,9.6,0,14.38,0,3.82-.05,7.65.08,11.48.14,4.2,1.53,7.51,6.39,8,5.52.61,9.29-1.26,10.66-6a34.88,34.88,0,0,0,1.1-8.84c.16-6.28.05-12.56.05-19.09h8.62Z" transform="translate(0.53)"/><path class="cls-1" d="M0,257.11c5.13.83,9.85,2.08,14.57,2.13,2.1,0,4.22-2.41,6.34-3.72-1.47-2-2.56-4.51-4.49-5.71-3.49-2.19-7.54-3.45-11.25-5.32C1,242.4-.77,238.82-.45,234.21s3.1-7.54,7.41-9c7.49-2.59,14.69-1.47,22.07,1.59l-2.47,5.91c-4.51-.71-8.56-1.79-12.63-1.82-1.87,0-3.76,2-5.65,3.12,1.32,1.68,2.3,3.94,4,4.93,3.43,2,7.33,3.14,10.9,4.9,4.39,2.16,7,5.68,6.54,10.79-.49,5.37-3.42,9.33-8.7,10.25a61.92,61.92,0,0,1-15.33.64C-.66,265-1.22,263.72,0,257.11Z" transform="translate(0.53)"/><path class="cls-1" d="M110.46,256.55c1,7.36.42,8.21-6.24,9.24-10.11,1.56-17.6-1.29-21.35-8.11-4.34-7.9-3.45-21.17,1.85-27.51,5.74-6.88,16.31-8.51,26.67-3.77-.66,2-1.33,4.11-2.07,6.4-6.67-.91-13.65-4.42-18.22,3.32-3,5.08-2.56,15,1,19.06C97.47,261.44,103.9,258.15,110.46,256.55Z" transform="translate(0.53)"/><path class="cls-1" d="M375.28,224.2c-.18,2.65-.34,4.92-.52,7.63-1.59,0-2.86-.06-4.12,0-7.1.38-11.35,4.63-11.48,11.77-.13,7,0,13.94,0,21.34h-8.7V224.89h6.5c.47,1.82,1,3.81,1.65,6.35C362.77,225.57,367.71,222.53,375.28,224.2Z" transform="translate(0.53)"/><path class="cls-1" d="M168.27,264.93V224.85h6.62c.48,1.86,1,3.77,1.58,6.2,4.33-5.18,9.21-8.74,16.69-6.79-.15,2.52-.3,4.91-.44,7.28a63.68,63.68,0,0,0-6.86.75c-5.54,1.24-8.6,5.13-8.72,11.21-.13,7,0,14,0,21.43Z" transform="translate(0.53)"/></svg>