<?xml version="1.0" encoding="UTF-8"?>
<svg width="227px" height="129px" viewBox="0 0 227 129" version="1.1" xmlns="http://www.w3.org/2000/svg" xmlns:xlink="http://www.w3.org/1999/xlink">
    <title>Components/Brand/Logo_Completo_bianco</title>
    <g id="Components/Brand/Logo_Completo_bianco" stroke="none" stroke-width="1" fill="none" fill-rule="evenodd">
        <g id="Logo_Esteso" fill="#FFFFFF">
            <path d="M101.4229,81.0955 C104.3479,81.0955 106.0729,82.3295 107.5179,83.9145 L107.5179,81.4485 L112.8729,81.4485 L112.8729,96.0695 C112.8729,103.1865 109.3499,106.0395 102.3389,106.0395 C99.2739,106.0395 96.3849,105.3355 93.9889,104.0675 L95.8209,100.0505 C97.7589,101.1425 99.6959,101.7775 102.1979,101.7775 C105.8619,101.7775 107.5889,100.0145 107.5889,96.6335 L107.5889,95.7175 C106.0029,97.6205 104.2759,98.7825 101.4229,98.7825 C97.0199,98.7825 93.0379,95.5755 93.0379,89.9745 L93.0379,89.9045 C93.0379,84.2675 97.0899,81.0955 101.4229,81.0955 Z M181.1494,81.0958 C187.4564,81.0958 190.3444,85.9928 190.3444,91.3488 L190.3444,91.4198 C190.3444,91.9478 190.3094,92.2648 190.2744,92.7578 L177.1324,92.7578 C177.6614,95.1878 179.3524,96.4568 181.7484,96.4568 C183.5454,96.4568 184.8484,95.8938 186.3284,94.5198 L189.3934,97.2328 C187.6314,99.4168 185.0944,100.7548 181.6774,100.7548 C176.0054,100.7548 171.8124,96.7738 171.8124,90.9958 L171.8124,90.9248 C171.8124,85.5348 175.6534,81.0958 181.1494,81.0958 Z M126.084,81.0958 C132.391,81.0958 135.279,85.9928 135.279,91.3488 L135.279,91.4198 C135.279,91.9478 135.244,92.2648 135.209,92.7578 L122.067,92.7578 C122.596,95.1878 124.287,96.4568 126.683,96.4568 C128.479,96.4568 129.783,95.8938 131.263,94.5198 L134.328,97.2328 C132.566,99.4168 130.03,100.7548 126.612,100.7548 C120.94,100.7548 116.748,96.7738 116.748,90.9958 L116.748,90.9248 C116.748,85.5348 120.588,81.0958 126.084,81.0958 Z M38.0436,81.2369 C43.8926,81.2369 46.4636,84.2669 46.4636,89.3749 L46.4636,100.3319 L41.2856,100.3319 L41.2856,98.2889 C39.9816,99.7339 38.1846,100.6849 35.5776,100.6849 C32.0196,100.6849 29.0946,98.6409 29.0946,94.9069 L29.0946,94.8369 C29.0946,90.7149 32.2306,88.8119 36.7046,88.8119 C38.6076,88.8119 39.9816,89.1289 41.3206,89.5869 L41.3206,89.2699 C41.3206,87.0499 39.9466,85.8169 37.2686,85.8169 C35.2256,85.8169 33.7816,86.2049 32.0546,86.8389 L30.7156,82.7519 C32.7936,81.8369 34.8376,81.2369 38.0436,81.2369 Z M80.8483,81.2369 C86.6963,81.2369 89.2683,84.2669 89.2683,89.3749 L89.2683,100.3319 L84.0903,100.3319 L84.0903,98.2889 C82.7863,99.7339 80.9893,100.6849 78.3823,100.6849 C74.8233,100.6849 71.8993,98.6409 71.8993,94.9069 L71.8993,94.8369 C71.8993,90.7149 75.0353,88.8119 79.5093,88.8119 C81.4123,88.8119 82.7863,89.1289 84.1253,89.5869 L84.1253,89.2699 C84.1253,87.0499 82.7513,85.8169 80.0733,85.8169 C78.0303,85.8169 76.5853,86.2049 74.8583,86.8389 L73.5203,82.7519 C75.5983,81.8369 77.6423,81.2369 80.8483,81.2369 Z M222.5084,76.6217 L222.5084,81.4487 L226.9494,81.4487 L226.9494,86.0287 L222.5084,86.0287 L222.5084,94.0967 C222.5084,95.3297 223.0374,95.9297 224.2354,95.9297 C225.2224,95.9297 226.1034,95.6817 226.8784,95.2587 L226.8784,99.5577 C225.7514,100.2267 224.4474,100.6497 222.6504,100.6497 C219.3744,100.6497 217.1544,99.3457 217.1544,94.9777 L217.1544,86.0287 L214.8994,86.0287 L214.8994,81.4487 L217.1544,81.4487 L217.1544,76.6217 L222.5084,76.6217 Z M161.7026,81.0953 C165.6836,81.0953 168.0786,83.4913 168.0786,88.0373 L168.0786,100.3323 L162.7236,100.3323 L162.7236,89.7973 C162.7236,87.2613 161.5966,85.9583 159.5886,85.9583 C157.5796,85.9583 156.3476,87.2613 156.3476,89.7973 L156.3476,100.3323 L150.9926,100.3323 L150.9926,89.7973 C150.9926,87.2613 149.8646,85.9583 147.8566,85.9583 C145.8476,85.9583 144.6156,87.2613 144.6156,89.7973 L144.6156,100.3323 L139.2596,100.3323 L139.2596,81.4483 L144.6156,81.4483 L144.6156,84.1263 C145.8476,82.5403 147.4686,81.0953 150.1816,81.0953 C152.6476,81.0953 154.5156,82.1883 155.5016,84.0913 C157.1576,82.1523 159.1306,81.0953 161.7026,81.0953 Z M205.2105,81.0953 C209.2635,81.0953 211.6235,83.7743 211.6235,88.1063 L211.6235,100.3323 L206.2685,100.3323 L206.2685,89.7973 C206.2685,87.2613 205.0705,85.9583 203.0275,85.9583 C200.9845,85.9583 199.6805,87.2613 199.6805,89.7973 L199.6805,100.3323 L194.3255,100.3323 L194.3255,81.4483 L199.6805,81.4483 L199.6805,84.1263 C200.9145,82.5403 202.4985,81.0953 205.2105,81.0953 Z M61.9655,81.0953 C66.0175,81.0953 68.3775,83.7743 68.3775,88.1063 L68.3775,100.3323 L63.0225,100.3323 L63.0225,89.7973 C63.0225,87.2613 61.8245,85.9583 59.7815,85.9583 C57.7375,85.9583 56.4345,87.2613 56.4345,89.7973 L56.4345,100.3323 L51.0795,100.3323 L51.0795,81.4483 L56.4345,81.4483 L56.4345,84.1263 C57.6675,82.5403 59.2525,81.0953 61.9655,81.0953 Z M6.0545,75.6703 L12.5375,86.0983 L19.0195,75.6703 L24.8685,75.6703 L24.8685,100.3323 L19.4775,100.3323 L19.4775,84.2313 L12.5375,94.7663 L12.3955,94.7663 L5.5255,84.3383 L5.5255,100.3323 L0.2065,100.3323 L0.2065,75.6703 L6.0545,75.6703 Z M80.7773,92.0179 C78.4873,92.0179 77.0783,92.9329 77.0783,94.6249 L77.0783,94.6949 C77.0783,96.1399 78.2763,96.9859 80.0033,96.9859 C82.5043,96.9859 84.1953,95.6119 84.1953,93.6749 L84.1953,92.7229 C83.2793,92.2989 82.0813,92.0179 80.7773,92.0179 Z M37.9736,92.0179 C35.6836,92.0179 34.2736,92.9329 34.2736,94.6249 L34.2736,94.6949 C34.2736,96.1399 35.4716,96.9859 37.1986,96.9859 C39.7006,96.9859 41.3906,95.6119 41.3906,93.6749 L41.3906,92.7229 C40.4746,92.2989 39.2776,92.0179 37.9736,92.0179 Z M102.9729,85.5345 C100.3659,85.5345 98.3929,87.3325 98.3929,89.9045 L98.3929,89.9745 C98.3929,92.5815 100.3659,94.3435 102.9729,94.3435 C105.5799,94.3435 107.5889,92.5475 107.5889,89.9745 L107.5889,89.9045 C107.5889,87.3325 105.5799,85.5345 102.9729,85.5345 Z M181.1494,85.3948 C178.9294,85.3948 177.4854,86.9788 177.0624,89.4118 L185.1304,89.4118 C184.8134,87.0158 183.4044,85.3948 181.1494,85.3948 Z M126.084,85.3948 C123.864,85.3948 122.42,86.9788 121.997,89.4118 L130.065,89.4118 C129.748,87.0158 128.339,85.3948 126.084,85.3948 Z M27.3335,46.4286 L31.6315,59.3606 L35.7535,46.4286 L41.3215,46.4286 L34.0635,65.8816 C32.6185,69.7446 31.0685,71.1966 27.8625,71.1966 C25.9245,71.1966 24.4805,70.6996 23.1065,69.8846 L24.9025,65.9876 C25.6075,66.4126 26.4885,66.7316 27.1935,66.7316 C28.1085,66.7316 28.6025,66.4486 29.0595,65.4916 L21.6615,46.4286 L27.3335,46.4286 Z M83.6328,46.0737 C89.9398,46.0737 92.8278,50.9997 92.8278,56.3857 L92.8278,56.4567 C92.8278,56.9877 92.7928,57.3067 92.7578,57.8027 L79.6158,57.8027 C80.1448,60.2477 81.8358,61.5227 84.2318,61.5227 C86.0288,61.5227 87.3318,60.9567 88.8118,59.5747 L91.8768,62.3027 C90.1148,64.4997 87.5778,65.8457 84.1608,65.8457 C78.4878,65.8457 74.2958,61.8417 74.2958,56.0307 L74.2958,55.9597 C74.2958,50.5387 78.1358,46.0737 83.6328,46.0737 Z M9.8239,40.2636 C13.4179,40.2636 16.4829,41.3976 18.9839,43.4176 L16.1659,47.5266 C13.9819,46.0026 11.8319,45.0816 9.7539,45.0816 C7.6749,45.0816 6.5829,46.0386 6.5829,47.2436 L6.5829,47.3146 C6.5829,48.9446 7.6399,49.4756 11.9029,50.5746 C16.9049,51.8846 19.7249,53.6916 19.7249,58.0156 L19.7249,58.0866 C19.7249,63.0106 15.9889,65.7756 10.6699,65.7756 C6.9359,65.7756 3.1649,64.4636 0.2059,61.8076 L3.4119,57.9446 C5.6319,59.7876 7.9569,60.9566 10.7749,60.9566 C12.9949,60.9566 14.3339,60.0696 14.3339,58.6176 L14.3339,58.5466 C14.3339,57.1646 13.4879,56.4566 9.3659,55.3926 C4.3989,54.1176 1.1919,52.7356 1.1919,47.8106 L1.1919,47.7396 C1.1919,43.2386 4.7859,40.2636 9.8239,40.2636 Z M50.1632,46.1446 C52.5592,46.1446 55.1662,46.9596 57.2102,48.3416 L55.1662,52.0626 C53.2992,50.9646 51.4312,50.2906 50.0572,50.2906 C48.7542,50.2906 48.0852,50.8576 48.0852,51.6026 L48.0852,51.6716 C48.0852,52.7356 49.8822,53.2326 51.9252,53.9396 C54.5672,54.8256 57.6332,56.1016 57.6332,59.5746 L57.6332,59.6456 C57.6332,63.8616 54.4972,65.7756 50.4102,65.7756 C47.7672,65.7756 44.8082,64.8896 42.3062,62.9046 L44.5972,59.3606 C46.6402,60.8506 48.7892,61.6296 50.5512,61.6296 C52.1002,61.6296 52.8062,61.0616 52.8062,60.2126 L52.8062,60.1416 C52.8062,58.9726 50.9732,58.5826 48.8952,57.9446 C46.2522,57.1646 43.2582,55.9246 43.2582,52.2386 L43.2582,52.1696 C43.2582,48.3066 46.3582,46.1446 50.1632,46.1446 Z M67.3561,41.5745 L67.3561,46.4285 L71.7951,46.4285 L71.7951,51.0355 L67.3561,51.0355 L67.3561,59.1495 C67.3561,60.3895 67.8851,60.9925 69.0831,60.9925 C70.0681,60.9925 70.9491,60.7425 71.7251,60.3185 L71.7251,64.6415 C70.5981,65.3145 69.2941,65.7395 67.4971,65.7395 C64.2211,65.7395 62.0011,64.4285 62.0011,60.0355 L62.0011,51.0355 L59.7461,51.0355 L59.7461,46.4285 L62.0011,46.4285 L62.0011,41.5745 L67.3561,41.5745 Z M119.2515,46.0737 C123.2315,46.0737 125.6275,48.4837 125.6275,53.0557 L125.6275,65.4207 L120.2725,65.4207 L120.2725,54.8257 C120.2725,52.2747 119.1455,50.9647 117.1365,50.9647 C115.1285,50.9647 113.8955,52.2747 113.8955,54.8257 L113.8955,65.4207 L108.5405,65.4207 L108.5405,54.8257 C108.5405,52.2747 107.4135,50.9647 105.4045,50.9647 C103.3965,50.9647 102.1635,52.2747 102.1635,54.8257 L102.1635,65.4207 L96.8085,65.4207 L96.8085,46.4287 L102.1635,46.4287 L102.1635,49.1217 C103.3965,47.5267 105.0175,46.0737 107.7295,46.0737 C110.1965,46.0737 112.0635,47.1727 113.0495,49.0867 C114.7065,47.1367 116.6785,46.0737 119.2515,46.0737 Z M83.6328,50.3977 C81.4128,50.3977 79.9688,51.9907 79.5458,54.4377 L87.6128,54.4377 C87.2968,52.0267 85.8868,50.3977 83.6328,50.3977 Z M25.3779,10.151 C28.1809,10.151 30.4529,12.424 30.4529,15.227 C30.4529,18.03 28.1809,20.302 25.3779,20.302 C22.5749,20.302 20.3029,22.574 20.3029,25.378 C20.3029,28.181 18.0299,30.453 15.2269,30.453 C12.4239,30.453 10.1509,28.181 10.1509,25.378 C10.1509,22.574 12.4239,20.302 15.2269,20.302 C18.0299,20.302 20.3029,18.03 20.3029,15.227 C20.3029,12.424 22.5749,10.151 25.3779,10.151 Z M35.5297,2.94875235e-13 C38.3317,2.94875235e-13 40.6047,2.272 40.6047,5.075 C40.6047,7.879 42.8767,10.151 45.6797,10.151 C48.4837,10.151 50.7557,12.424 50.7557,15.227 C50.7557,18.03 48.4837,20.302 45.6797,20.302 C42.8767,20.302 40.6047,22.574 40.6047,25.378 C40.6047,28.181 38.3317,30.453 35.5297,30.453 C32.7257,30.453 30.4527,28.181 30.4527,25.378 C30.4527,22.574 32.7257,20.302 35.5297,20.302 C38.3317,20.302 40.6047,18.03 40.6047,15.227 C40.6047,12.424 38.3317,10.151 35.5297,10.151 C32.7257,10.151 30.4527,7.879 30.4527,5.075 C30.4527,2.272 32.7257,2.94875235e-13 35.5297,2.94875235e-13 Z M5.075,10.1513 C7.879,10.1513 10.151,12.4233 10.151,15.2263 C10.151,18.0293 7.879,20.3023 5.075,20.3023 C2.272,20.3023 2.3625546e-13,18.0293 2.3625546e-13,15.2263 C2.3625546e-13,12.4233 2.272,10.1513 5.075,10.1513 Z"></path>
        </g>
        <g id="Components/Brand/Payoff" transform="translate(0.000100, 115.000000)" fill="#FFFFFF">
            <path d="M81.3231701,3.08850863 C82.3132133,3.08850863 83.0339363,3.51100144 83.4853392,4.35395827 L83.4853392,3.19197626 L84.9262781,3.19197626 L84.9262781,10.016782 C84.9262781,11.1635482 84.6006594,12.0288216 83.9489147,12.6126022 C83.2966629,13.1958755 82.4602996,13.4875122 81.4408392,13.4875122 C80.4797061,13.4875122 79.6707313,13.3262245 79.0139147,13.0021273 L79.0139147,11.5459727 C79.641314,11.9583216 80.4015982,12.1642424 81.2937529,12.1642424 C82.7544723,12.1642424 83.4853392,11.4435194 83.4853392,10.0015662 L83.4853392,9.23722446 C83.0045191,10.0411273 82.283796,10.4428252 81.3231701,10.4428252 C80.4797061,10.4428252 79.7589831,10.1319151 79.1610011,9.50958777 C78.5630191,8.88675324 78.2637745,8.00677122 78.2637745,6.86913453 C78.2637745,5.77105899 78.5427313,4.86622446 79.1021665,4.15513813 C79.6610946,3.44455899 80.4015982,3.08850863 81.3231701,3.08850863 Z M121.638621,3.08855935 C122.776257,3.08855935 123.65421,3.44917446 124.271466,4.16989748 C124.889228,4.8906205 125.198617,5.81016367 125.198617,6.92801978 C125.198617,8.0458759 124.881621,8.96744784 124.249149,9.69324281 C123.616678,10.4190378 122.74684,10.7811745 121.638621,10.7811745 C120.540545,10.7811745 119.677808,10.4236025 119.049901,9.70744424 C118.422502,8.99230036 118.108549,8.08492986 118.108549,6.98685432 C118.108549,5.8689982 118.432646,4.93981835 119.079318,4.19931475 C119.726498,3.45931835 120.579599,3.08855935 121.638621,3.08855935 Z M139.759352,8.78151043 C140.033744,8.78151043 140.267054,8.87686295 140.458266,9.06807518 C140.649478,9.25928741 140.744831,9.49208957 140.744831,9.76648165 C140.744831,10.0413809 140.649478,10.2767191 140.458266,10.4730032 C140.267054,10.668273 140.033744,10.7671759 139.759352,10.7671759 C139.475323,10.7671759 139.237449,10.668273 139.046237,10.4730032 C138.855025,10.2767191 138.759165,10.0413809 138.759165,9.76648165 C138.759165,9.49208957 138.855025,9.25928741 139.046237,9.06807518 C139.237449,8.87686295 139.475323,8.78151043 139.759352,8.78151043 Z M95.8256795,8.78151043 C96.1000716,8.78151043 96.3328737,8.87686295 96.524086,9.06807518 C96.7152982,9.25928741 96.8106507,9.49208957 96.8106507,9.76648165 C96.8106507,10.0413809 96.7152982,10.2767191 96.524086,10.4730032 C96.3328737,10.668273 96.1000716,10.7671759 95.8256795,10.7671759 C95.5411435,10.7671759 95.3037766,10.668273 95.1125644,10.4730032 C94.920845,10.2767191 94.8249853,10.0413809 94.8249853,9.76648165 C94.8249853,9.49208957 94.920845,9.25928741 95.1125644,9.06807518 C95.3037766,8.87686295 95.5411435,8.78151043 95.8256795,8.78151043 Z M37.6830615,8.78151043 C37.9574536,8.78151043 38.1907629,8.87686295 38.3819752,9.06807518 C38.5731874,9.25928741 38.6685399,9.49208957 38.6685399,9.76648165 C38.6685399,10.0413809 38.5731874,10.2767191 38.3819752,10.4730032 C38.1907629,10.668273 37.9574536,10.7671759 37.6830615,10.7671759 C37.3990327,10.7671759 37.1611586,10.668273 36.9699464,10.4730032 C36.7787342,10.2767191 36.6828745,10.0413809 36.6828745,9.76648165 C36.6828745,9.49208957 36.7787342,9.25928741 36.9699464,9.06807518 C37.1611586,8.87686295 37.3990327,8.78151043 37.6830615,8.78151043 Z M107.430284,0.559130935 C108.578064,0.559130935 109.53869,0.779760432 110.313176,1.22101942 L110.313176,2.78013453 C109.469712,2.25062374 108.528359,1.98586835 107.489118,1.98586835 C106.430097,1.98586835 105.574967,2.32416691 104.922715,3.00076403 C104.269956,3.67736115 103.944338,4.56951583 103.944338,5.67773525 C103.944338,6.81537194 104.265899,7.71259856 104.908007,8.36941511 C105.550115,9.02673885 106.435169,9.35489353 107.563169,9.35489353 C108.151007,9.35489353 108.709935,9.24686115 109.239446,9.0307964 L109.239446,6.29549784 L107.22487,6.29549784 L107.22487,4.9864295 L110.725018,4.9864295 L110.725018,9.73731799 L110.710816,9.73731799 L110.725018,9.84027842 C109.871917,10.458041 108.803259,10.7669223 107.519043,10.7669223 C105.969057,10.7669223 104.721359,10.3109547 103.775442,9.39901942 C102.829018,8.48708417 102.355805,7.24648705 102.355805,5.67773525 C102.355805,4.1576741 102.833582,2.92468489 103.790151,1.97826043 C104.746212,1.03234317 105.959421,0.559130935 107.430284,0.559130935 Z M49.2291356,0.603104676 C50.2881572,0.603104676 51.136186,0.784680216 51.7742363,1.1473241 L51.7742363,2.63289604 C51.3421068,2.39755791 50.9525817,2.23322698 50.6046464,2.14041043 C50.256204,2.04708669 49.812409,2.00042482 49.2732615,2.00042482 C48.2827112,2.00042482 47.4569989,2.33618741 46.7946032,3.00821978 C46.1332219,3.67974496 45.8020241,4.56987086 45.8020241,5.67758309 C45.8020241,6.80558309 46.130686,7.70230252 46.7880097,8.36926295 C47.4448263,9.03622338 48.3121284,9.36945 49.3909306,9.36945 C50.3419198,9.36945 51.1417651,9.12447518 51.7884378,8.63401835 L51.7884378,10.1637162 C51.1803119,10.5659212 50.337355,10.7667701 49.2585529,10.7667701 C47.7780529,10.7667701 46.566873,10.3057306 45.6260277,9.38415863 C44.684168,8.46258669 44.2134917,7.22706151 44.2134917,5.67758309 C44.2134917,4.17730252 44.686704,2.95648597 45.6326212,2.01513345 C46.5790457,1.07378094 47.7780529,0.603104676 49.2291356,0.603104676 Z M90.2067281,3.10342014 C91.1577173,3.10342014 91.9134367,3.40012878 92.4718576,3.99354604 C93.0312928,4.58696331 93.3107568,5.4426 93.3107568,6.56045612 C93.3107568,6.86375827 93.2813396,7.18278345 93.222505,7.51651727 L88.324023,7.51651727 C88.4224187,8.16318993 88.6968108,8.65871871 89.1482137,9.00158201 C89.5991094,9.34495252 90.1676741,9.51638417 90.8544151,9.51638417 C91.6481741,9.51638417 92.3105698,9.33075108 92.8400806,8.95745612 L92.8400806,10.2518158 C92.2907892,10.5657691 91.5649942,10.7224921 90.6632029,10.7224921 C89.5062928,10.7224921 88.5842137,10.3745568 87.8979799,9.67817914 C87.2112388,8.98230863 86.8678683,8.06986619 86.8678683,6.94288058 C86.8678683,5.74590216 87.1823288,4.80759281 87.8097281,4.12592374 C88.4371273,3.44425468 89.2359583,3.10342014 90.2067281,3.10342014 Z M64.8496025,3.07456079 C66.8007788,3.07456079 67.7766205,4.02047806 67.7766205,5.91281978 L67.7766205,10.6489996 L66.3498831,10.6489996 L66.3498831,9.76648165 C65.9674586,10.3938809 65.2954263,10.7078342 64.3348004,10.7078342 C63.628786,10.7078342 63.0627572,10.5044493 62.6356996,10.0971723 C62.2091493,9.69090971 61.9961277,9.17357158 61.9961277,8.54566511 C61.9961277,7.83052122 62.2654478,7.27362194 62.8051025,6.87648885 C63.34425,6.47935576 64.0994622,6.28053561 65.070232,6.28053561 L66.3057572,6.28053561 L66.3057572,5.85398525 C66.3057572,5.34425504 66.1830162,4.9592946 65.9380414,4.69961115 C65.6925594,4.4399277 65.2857896,4.30957878 64.7167176,4.30957878 C63.9229586,4.30957878 63.2022356,4.53020827 62.5550558,4.97146727 L62.5550558,3.57414712 C63.1332572,3.2409205 63.8981061,3.07456079 64.8496025,3.07456079 Z M128.02237,3.1918241 L128.713676,5.66287446 C128.93887,6.44750396 129.130082,7.13880971 129.287313,7.73679173 C129.444036,8.33528094 129.542431,8.73697878 129.581485,8.94289964 L129.64032,9.25178094 C129.767626,8.63401835 130.091215,7.43298237 130.61109,5.64816583 L131.331813,3.1918241 L132.729133,3.1918241 L133.464564,5.64816583 C133.699903,6.46221259 133.900751,7.17076295 134.067111,7.77330971 C134.234485,8.37687086 134.34201,8.77653993 134.391208,8.97231691 L134.450043,9.26648957 C134.567712,8.68828813 134.900938,7.48218022 135.45023,5.64816583 L136.185662,3.1918241 L137.641816,3.1918241 L135.273219,10.6491011 L133.626359,10.6491011 L132.935054,8.20746799 C132.729133,7.46239964 132.550093,6.80253993 132.397935,6.22890324 C132.246284,5.65526655 132.145352,5.26574137 132.096662,5.0598205 L132.037827,4.76564784 C131.900377,5.40319101 131.601133,6.55046439 131.1406,8.20746799 L130.464003,10.6491011 L128.831345,10.6491011 L126.492672,3.1918241 L128.02237,3.1918241 Z M35.5063867,3.1915705 L32.6676205,6.75156691 L35.5946385,10.6493547 L33.8737284,10.6493547 L31.005545,6.75156691 L33.8148939,3.1915705 L35.5063867,3.1915705 Z M116.520422,3.11828094 C116.657872,3.11828094 116.809523,3.13298957 116.97639,3.16240683 L116.97639,4.57443561 C116.770469,4.48618381 116.540203,4.44205791 116.285084,4.44205791 C115.78499,4.44205791 115.373149,4.66268741 115.049559,5.1039464 C114.725969,5.5452054 114.564174,6.07015144 114.564174,6.67777014 L114.564174,10.6491011 L113.122728,10.6491011 L113.122728,3.1918241 L114.564174,3.1918241 L114.564174,4.50089245 C114.926818,3.5793205 115.579069,3.11828094 116.520422,3.11828094 Z M24.7538687,3.08886367 C25.4898076,3.08886367 26.0730809,3.31456511 26.5047032,3.76546079 C26.9358183,4.21635647 27.1518831,4.82955432 27.1518831,5.60403993 L27.1518831,10.6491011 L25.7104371,10.6491011 L25.7104371,5.94233849 C25.7104371,5.42246439 25.5800881,5.02533129 25.3209119,4.75093921 C25.0607212,4.47654712 24.7148147,4.33909748 24.2836996,4.33909748 C23.7739694,4.33909748 23.3372752,4.53741043 22.9746313,4.93454353 C22.6119874,5.33218381 22.4299047,5.8885759 22.4299047,6.60422698 L22.4299047,10.6491011 L20.9889658,10.6491011 L20.9889658,3.1918241 L22.4299047,3.1918241 L22.4299047,4.47147518 C22.8716709,3.54990324 23.6461565,3.08886367 24.7538687,3.08886367 Z M9.89865647,0.250097482 L9.89865647,4.47147518 C10.3201349,3.54990324 11.0900558,3.08886367 12.2079119,3.08886367 C12.9337068,3.08886367 13.5169802,3.31456511 13.9582392,3.76546079 C14.3994982,4.21635647 14.6201277,4.84426295 14.6201277,5.64816583 L14.6201277,10.6491011 L13.1786817,10.6491011 L13.1786817,5.94233849 C13.1786817,5.43260827 13.0488399,5.03801115 12.7891565,4.75854712 C12.5289658,4.47908309 12.1881313,4.33909748 11.7666529,4.33909748 C11.276196,4.33909748 10.842545,4.52574496 10.4651924,4.89802554 C10.0873327,5.27081331 9.89865647,5.83937806 9.89865647,6.60422698 L9.89865647,10.6491011 L8.45771763,10.6491011 L8.45771763,0.250097482 L9.89865647,0.250097482 Z M73.8952597,3.08886367 C74.6311986,3.08886367 75.2139647,3.31456511 75.6460942,3.76546079 C76.0772094,4.21635647 76.2927669,4.82955432 76.2927669,5.60403993 L76.2927669,10.6491011 L74.8513209,10.6491011 L74.8513209,5.94233849 C74.8513209,5.42246439 74.7214791,5.02533129 74.4617957,4.75093921 C74.201605,4.47654712 73.8562058,4.33909748 73.4250906,4.33909748 C72.9148532,4.33909748 72.478159,4.53741043 72.1160223,4.93454353 C71.7528712,5.33218381 71.5712957,5.8885759 71.5712957,6.60422698 L71.5712957,10.6491011 L70.1303568,10.6491011 L70.1303568,3.1918241 L71.5712957,3.1918241 L71.5712957,4.47147518 C72.0130619,3.54990324 72.7875475,3.08886367 73.8952597,3.08886367 Z M18.4882446,3.19177338 L18.4882446,10.6490504 L17.0325971,10.6490504 L17.0325971,3.19177338 L18.4882446,3.19177338 Z M30.9462032,0.353311511 L30.9462032,10.6493547 L29.5047572,10.6493547 L29.5047572,0.353311511 L30.9462032,0.353311511 Z M55.303446,0.250097482 L55.303446,4.47147518 C55.7249245,3.54990324 56.4953525,3.08886367 57.6132086,3.08886367 C58.3390036,3.08886367 58.922277,3.31456511 59.363536,3.76546079 C59.8042878,4.21635647 60.0254245,4.84426295 60.0254245,5.64816583 L60.0254245,10.6491011 L58.5839784,10.6491011 L58.5839784,5.94233849 C58.5839784,5.43260827 58.4536295,5.03801115 58.1944532,4.75854712 C57.9342626,4.47908309 57.5934281,4.33909748 57.1719496,4.33909748 C56.6814928,4.33909748 56.2478417,4.52574496 55.8704892,4.89802554 C55.4921223,5.27081331 55.303446,5.83937806 55.303446,6.60422698 L55.303446,10.6491011 L53.8625072,10.6491011 L53.8625072,0.250097482 L55.303446,0.250097482 Z M6.70713669,0.735735971 L6.70713669,2.00067842 L4.10370863,2.00067842 L4.10370863,10.6488475 L2.58871942,10.6488475 L2.58871942,2.00067842 L4.04121181e-14,2.00067842 L4.04121181e-14,0.735735971 L6.70713669,0.735735971 Z M66.3057572,7.32484856 L65.1879011,7.32484856 C64.6386097,7.32484856 64.2247392,7.43288094 63.944768,7.64843849 C63.665304,7.86450324 63.5258255,8.13889532 63.5258255,8.47212194 C63.5258255,8.81549245 63.6338579,9.08481259 63.8494155,9.28109676 C64.064973,9.47788813 64.3789263,9.57526942 64.790768,9.57526942 C65.2614442,9.57526942 65.6311888,9.4454277 65.9010162,9.18523705 C66.1708435,8.92606079 66.3057572,8.58522626 66.3057572,8.16324065 L66.3057572,7.32484856 Z M121.624419,4.30988309 C120.986369,4.30988309 120.491347,4.56246583 120.13834,5.0671241 C119.78584,5.57228957 119.608829,6.19715288 119.608829,6.94272842 C119.608829,7.67765288 119.789897,8.29845863 120.153049,8.80311691 C120.515692,9.30828237 121.011221,9.56035791 121.638621,9.56035791 C122.305074,9.56035791 122.812775,9.31589029 123.161218,8.82543345 C123.508646,8.33497662 123.683121,7.71264928 123.683121,6.95692986 C123.683121,6.18295144 123.516254,5.54794424 123.183027,5.05241547 C122.8498,4.55739388 122.329926,4.30988309 121.624419,4.30988309 Z M81.6467601,4.35395827 C81.0680514,4.35395827 80.6120838,4.58168849 80.2788572,5.03765612 C79.9451234,5.49413094 79.7787637,6.09414173 79.7787637,6.83971727 C79.7787637,7.61420288 79.9578032,8.2030554 80.3158824,8.60424604 C80.6734543,9.00645108 81.0974687,9.20780719 81.5874183,9.20780719 C82.0976558,9.20780719 82.5414507,9.00898705 82.9188032,8.61185396 C83.2966629,8.21472086 83.4853392,7.65832878 83.4853392,6.9426777 C83.4853392,6.06015971 83.3062996,5.40790791 82.9482205,4.9864295 C82.5901414,4.56495108 82.1559831,4.35395827 81.6467601,4.35395827 Z M90.2366525,4.29481942 C89.7456885,4.29481942 89.3247173,4.47436619 88.9717101,4.83193813 C88.6187029,5.19001727 88.3980734,5.7068482 88.3093144,6.38344532 L91.9134367,6.38344532 L91.9134367,6.11919712 C91.8936561,5.55976187 91.7414978,5.1164741 91.4569619,4.78781223 C91.1729331,4.45915036 90.7661633,4.29481942 90.2366525,4.29481942 Z M17.7533201,5.64153041e-14 C18.0079317,5.64153041e-14 18.2239964,0.0882517986 18.4005,0.264755396 C18.5770036,0.441258993 18.6652554,0.657323741 18.6652554,0.911935252 C18.6652554,1.15691007 18.5770036,1.36790288 18.4005,1.54440647 C18.2239964,1.72141727 18.0079317,1.80916187 17.7533201,1.80916187 C17.4982014,1.80916187 17.2846727,1.72344604 17.1137482,1.55201439 C16.9418094,1.38058273 16.8560935,1.16705396 16.8560935,0.911935252 C16.8560935,0.657323741 16.9418094,0.441258993 17.1137482,0.264755396 C17.2846727,0.0882517986 17.4982014,5.64153041e-14 17.7533201,5.64153041e-14 Z" id="payoff"></path>
        </g>
    </g>
</svg>